<?xml version="1.0" encoding="iso-8859-1"?>
<!-- Generator: Adobe Illustrator 16.0.0, SVG Export Plug-In . SVG Version: 6.00 Build 0)  -->
<!DOCTYPE svg PUBLIC "-//W3C//DTD SVG 1.1//EN" "http://www.w3.org/Graphics/SVG/1.1/DTD/svg11.dtd">
<svg version="1.1" id="Capa_1" xmlns="http://www.w3.org/2000/svg" xmlns:xlink="http://www.w3.org/1999/xlink" x="0px" y="0px"
	 width="188.937px" height="188.937px" viewBox="0 0 188.937 188.937" style="enable-background:new 0 0 188.937 188.937;"
	 xml:space="preserve">
<g>
	<path d="M104.741,92.185c0-5.666-4.609-10.283-10.278-10.283s-10.28,4.617-10.28,10.283c0,5.664,4.611,10.272,10.28,10.272
		S104.741,97.849,104.741,92.185z M94.463,94.357c-1.205,0-2.181-0.976-2.181-2.167c0-1.194,0.98-2.183,2.181-2.183
		s2.181,0.989,2.181,2.183C96.644,93.382,95.668,94.357,94.463,94.357z M178.653,47.951c-5.669,0-10.272,4.614-10.272,10.283
		c0,2.278,0.77,4.369,2.024,6.075l-42.867,33.296l-29.01-65.541c3.66-1.572,6.213-5.21,6.213-9.439
		c0-5.664-4.609-10.27-10.273-10.27c-5.663,0-10.275,4.611-10.275,10.27c0,4.229,2.571,7.868,6.215,9.439L61.501,97.363
		L18.533,64.299c1.247-1.706,2.025-3.786,2.025-6.064c0-5.674-4.612-10.283-10.281-10.283C4.601,47.951,0,52.565,0,58.234
		c0,5.664,4.611,10.27,10.278,10.27c0.274,0,0.538-0.053,0.799-0.077l29.025,74.962c0,0.063-0.034,0.11-0.034,0.169
		c0,0.664,0.147,1.297,0.319,1.92v19.512c0,1.486,0.822,2.857,2.138,3.564c5.75,3.111,24.943,8.026,51.943,8.026
		c27.443,0,46.017-4.113,52.239-8.195c1.149-0.759,1.835-2.024,1.835-3.386v-19.49c0.169-0.633,0.327-1.276,0.327-1.951
		c0-0.063-0.032-0.116-0.032-0.18l29.025-74.956c0.269,0.023,0.532,0.076,0.796,0.076c5.68,0,10.278-4.611,10.278-10.265
		C188.932,52.56,184.327,47.951,178.653,47.951z M8.095,58.234c0-1.205,0.983-2.184,2.178-2.184c1.192,0,2.175,0.984,2.175,2.184
		s-0.983,2.17-2.175,2.17C9.078,60.404,8.095,59.439,8.095,58.234z M48.486,144.233c-0.145-0.147-0.285-0.295-0.351-0.433
		c0.071-0.158,0.206-0.326,0.351-0.506c0.422-0.496,1.179-1.033,2.236-1.593c0.355-0.189,0.746-0.38,1.173-0.569
		c4.768-2.131,13.867-4.388,26.665-5.484c4.271-0.358,8.947-0.591,14.017-0.633c0.633-0.011,1.237-0.021,1.891-0.021
		c0.929,0,1.804,0.021,2.706,0.032c5.157,0.063,9.897,0.316,14.201,0.706c12.698,1.14,21.595,3.418,26.098,5.4
		c0.206,0.095,0.412,0.18,0.597,0.264c1.128,0.549,1.919,1.044,2.362,1.498c0.152,0.147,0.295,0.306,0.358,0.442
		c-0.074,0.158-0.206,0.327-0.358,0.507c-0.222,0.264-0.522,0.537-0.929,0.812c-2.099,1.466-6.612,3.164-13.246,4.577
		c-7.769,1.667-18.483,2.911-31.794,2.911c-13.447,0-24.229-1.286-32.039-2.911c-6.621-1.381-11.084-3.016-13.109-4.334
		C48.956,144.666,48.687,144.444,48.486,144.233z M55.266,131.451l9.466-21.379l22.08,16.991
		C76.501,127.464,64.531,128.74,55.266,131.451z M102.795,127.074l21.521-16.717l9.34,21.094
		C124.601,128.804,112.941,127.517,102.795,127.074z M94.463,20.455c1.205,0,2.181,0.974,2.181,2.17c0,1.2-0.98,2.183-2.181,2.183
		s-2.181-0.983-2.181-2.183C92.282,21.439,93.258,20.455,94.463,20.455z M94.463,42.91l26.468,59.811l-26.102,20.282l-26.723-20.556
		L94.463,42.91z M23.654,78.453l34.478,26.536l-12.923,29.173L23.654,78.453z M140.442,162.574
		c-6.107,2.669-21.627,5.917-45.979,5.917c-22.977,0-39.485-3.723-45.977-6.128v-9.165c11.422,5.368,32.028,7.046,45.977,7.046
		c13.943,0,34.536-1.678,45.979-7.046V162.574z M143.717,134.161l-12.804-28.909l34.314-26.665L143.717,134.161z M178.653,60.404
		c-1.202,0-2.173-0.97-2.173-2.17s0.981-2.184,2.173-2.184s2.178,0.984,2.178,2.184S179.855,60.404,178.653,60.404z"/>
</g>
<g>
</g>
<g>
</g>
<g>
</g>
<g>
</g>
<g>
</g>
<g>
</g>
<g>
</g>
<g>
</g>
<g>
</g>
<g>
</g>
<g>
</g>
<g>
</g>
<g>
</g>
<g>
</g>
<g>
</g>
</svg>
