<?xml version="1.0" encoding="utf-8"?>
<!-- Generator: Adobe Illustrator 25.0.1, SVG Export Plug-In . SVG Version: 6.00 Build 0)  -->
<svg version="1.1" id="Warstwa_1" xmlns="http://www.w3.org/2000/svg" xmlns:xlink="http://www.w3.org/1999/xlink" x="0px" y="0px"
	 viewBox="0 0 436 436" style="enable-background:new 0 0 436 436;" xml:space="preserve">
<style type="text/css">
	.st0{fill:#FFFFFF;stroke:#FFFFFF;stroke-miterlimit:10;}
	.st1{fill:#FFFFFF;}
</style>
<path class="st0" d="M367.9,297.7H68.1c-2.9,0-5.5-1.9-6.4-4.6L16.9,162.4c-1.2-3.6,0.7-7.4,4.2-8.7c1.1-0.4,2.2-0.5,3.3-0.3
	c2.5,0.1,4.8,1.6,5.8,4.1c5.5,12.6,25.2,53.2,48.2,53.2c0.3,0,0.6,0,0.9,0c13.9-0.6,35.6-16.6,60.1-89.3c0.9-2.8,3.5-4.6,6.5-4.6
	c2.9,0,5.5,1.9,6.5,4.6c8.4,24.8,36.5,88.9,65.7,88.9c0.1,0,0.2,0,0.2,0c13.8-0.2,35.1-15.7,57.9-88.8c0.9-2.8,3.5-4.8,6.5-4.8h0.1
	c3,0,5.6,2,6.5,4.9c7,24,31.7,86.8,62,89.4c17.7,1.5,37.3-18.6,56.7-58.2c1.6-3.2,5.4-4.7,8.7-3.3c3.3,1.4,5,5.1,3.8,8.5
	l-46.2,134.9C373.4,295.8,370.8,297.7,367.9,297.7z M73,284.1h290l26.7-78c-12.9,13.7-26,19.7-39.7,18.6
	c-33.6-2.9-56.6-51.3-67.3-79.7c-18.9,52.8-40,78.7-64.3,79c-0.1,0-0.3,0-0.4,0c-33.9,0-60.1-52-72-80.7c-20.2,53.4-42,80-66.2,81
	c-12.4,0.5-23.2-5.7-32.5-14.9L73,284.1z"/>
<path class="st1" d="M367.9,352.2H68.1c-3.8,0-6.8-3-6.8-6.8v-54.5c0-3.8,3-6.8,6.8-6.8c3.8,0,6.8,3,6.8,6.8v47.7H361v-47.7
	c0-3.8,3-6.8,6.8-6.8s6.8,3,6.8,6.8v54.5C374.7,349.1,371.6,352.2,367.9,352.2z"/>
<path class="st1" d="M148.7,130.4c-12.9,0-23.3-10.5-23.3-23.3c0-12.9,10.5-23.3,23.3-23.3c12.9,0,23.3,10.5,23.3,23.3
	S161.6,130.4,148.7,130.4z M148.7,97.4c-5.3,0-9.7,4.3-9.7,9.7c0,5.3,4.3,9.7,9.7,9.7c5.3,0,9.7-4.3,9.7-9.7
	C158.4,101.7,154,97.4,148.7,97.4z"/>
<path class="st1" d="M280.7,130.4c-12.9,0-23.3-10.5-23.3-23.3c0-12.9,10.5-23.3,23.3-23.3c12.9,0,23.3,10.5,23.3,23.3
	S293.5,130.4,280.7,130.4z M280.7,97.4c-5.3,0-9.7,4.3-9.7,9.7c0,5.3,4.3,9.7,9.7,9.7c5.3,0,9.7-4.3,9.7-9.7
	C290.4,101.7,286,97.4,280.7,97.4z"/>
<path class="st1" d="M412.7,163.4c-12.9,0-23.3-10.5-23.3-23.3c0-12.9,10.5-23.3,23.3-23.3c12.9,0,23.3,10.5,23.3,23.3
	S425.5,163.4,412.7,163.4z M412.7,130.4c-5.3,0-9.7,4.3-9.7,9.7c0,5.3,4.3,9.7,9.7,9.7c5.3,0,9.7-4.3,9.7-9.7
	C422.4,134.7,418,130.4,412.7,130.4z"/>
<path class="st1" d="M23.3,163.4C10.5,163.4,0,152.9,0,140c0-12.9,10.5-23.3,23.3-23.3c12.9,0,23.3,10.5,23.3,23.3
	C46.6,152.9,36.2,163.4,23.3,163.4z M23.3,130.4c-5.3,0-9.7,4.3-9.7,9.7c0,5.3,4.3,9.7,9.7,9.7c5.3,0,9.7-4.3,9.7-9.7
	S28.7,130.4,23.3,130.4z"/>
</svg>
