<?xml version="1.0" encoding="utf-8"?>
<!-- Generator: Adobe Illustrator 25.0.1, SVG Export Plug-In . SVG Version: 6.00 Build 0)  -->
<svg version="1.1" id="Capa_1" xmlns="http://www.w3.org/2000/svg" xmlns:xlink="http://www.w3.org/1999/xlink" x="0px" y="0px"
	 viewBox="0 0 222.8 222.8" style="enable-background:new 0 0 222.8 222.8;" xml:space="preserve">
<style type="text/css">
	.st0{fill:#F9F9F9;}
</style>
<path class="st0" d="M52.7,201.7c-12.1,0-46.9-1.7-51.9-20.9c-1.6-6.1-0.8-11,2.5-14.4c7.6-8,25.2-4.5,27.2-4.1
	c7.8,1.7,22.9,3.6,28.6,4.3c2-2.5,5.6-7.7,6-10.9c0.1-0.8,0.2-1.7,0.3-2.7c0.4-5.2,1-12.3,6.5-19.1c5.9-7.3,8.6-18.1,10.2-24.6
	c0.3-1.4,0.9-4.1,1.6-7.4c3.7-18.2,8-38.1,12.7-44.1c4.8-6.2,8.4-8,10.1-8.6c1.7-2.5,8.1-11.8,11-16.6c0.5-0.9,1-1.7,1.4-2.5
	c2.7-5,4.9-8.1,15.2-8.7c13.3-0.7,18.3-0.4,20.7,1.5c1.1,0.9,1.8,2.1,2.5,3.2c0.8,1.5,1.6,2.7,3,3.3c1,0.4,3.1,1,5.5,1.6
	c5.8,1.5,13.8,3.7,18.9,6.7c5.8,3.5,8.3,6.6,7.6,9.2c-0.5,2-2.6,3.1-6.3,3.1c-4.4,0.1-9.3-0.5-13.6-0.9c-2.9-0.3-5.7-0.6-7.6-0.6
	h-0.5c-4.8,0-5.3,0.2-5.8,2.6c-0.9,4.9-3.9,8.9-7.7,10.4c-1.3,0.5-2.5,0.9-3.6,1.3c0.8,1.4,1.9,3.5,3.3,6.6
	c2.6,5.9,3.3,16.5,3.4,20.3c1.9,0.9,5.2,3.1,5.2,7.3c0,2.9-1.1,3.9-2.2,4.7c-0.2,0.2-0.4,0.3-0.6,0.6c0,0.1,0,0.1-0.1,0.2
	c-0.1,0.3-0.2,0.7-0.2,1.4c-0.2,3.1,0.7,5.8,1.5,8.4c0.5,1.5,0.9,2.8,1.1,4.2l0.3,1.7c0.5,3,0.9,5.6,1.7,8.4c0.9,3.2,1.8,5.8,4,10.2
	c1.9,3.8,4.3,12.3,5.1,15.1c1.3,0.7,3.3,2.2,4.2,5.1c0.9,3.3-0.5,6.5-1.2,7.7l0,1.2c2.5-0.2,4.6-0.3,6.5-0.5
	c8.9-0.8,18.7-0.8,25.2-0.7c9.5-0.1,15.3,1.8,17.4,5.7c1.4,2.6,0.9,5.8-1.4,9c-5.4,7.8-39.5,9.3-51.6,8.6c-13.9-0.8-29-1.5-29.2-1.5
	c-0.4,0-0.7-0.1-1-0.3c-2.3,0.6-4.5,1.2-6.7,1.7c-24.3,5.9-65.7,13.1-75.4,13.5C56.5,201.6,55,201.7,52.7,201.7z M19.6,165.2
	c-5.2,0-10.5,1-13.4,4c-2.2,2.4-2.8,5.9-1.5,10.6c4.3,16.4,39,18.4,52,17.9c9.3-0.4,51-7.7,74.7-13.4c9.4-2.3,19.9-5.6,30.1-8.9
	c6.7-2.1,13.2-4.2,19.3-5.9c-0.3,0-0.6,0.1-0.9,0.1c-9.1,0.8-23.2,1.7-59.2,2.7c-33.8,0.9-59.4-1.2-59.7-1.3c-0.1,0-0.5-0.1-1.2-0.1
	c0,0-0.1,0-0.1,0c-4.8-0.6-21.4-2.7-30-4.5C27,165.7,23.3,165.2,19.6,165.2z M150,183.2c5.5,0.3,12.5,0.6,19.3,1
	c15.6,0.9,44.6-1.9,48.1-6.9c1-1.4,1.9-3.3,1.1-4.8c-0.4-0.8-2.4-3.2-10.9-3.6c-0.9,0-1.9,0-3,0c-0.2,0-0.4,0-0.7,0
	c-9.6,0.3-25,5.2-41.4,10.4C158.4,180.5,154.2,181.9,150,183.2z M63.7,167.1c7.1,0.5,29.2,1.8,56.7,1.1c24.6-0.7,38.9-1.3,48.4-1.9
	l0.1-2.1c0-0.4,0.1-0.7,0.3-1c0,0,1.7-2.6,1-5c-0.6-2.2-2.6-2.9-2.6-2.9c-0.7-0.2-1.2-0.7-1.3-1.4c0-0.1-3-11-5.1-15.2
	c-2.3-4.7-3.3-7.4-4.2-10.9c-0.8-3-1.3-5.8-1.8-8.8l-0.3-1.6c-0.1-0.8-0.4-1.6-0.7-2.5c-0.6,0.8-1.3,1.6-2.1,2.1
	c-2.3,1.5-3.4,1.6-6.2,1.9l-0.2,0c-0.1,0.6,0.1,1.9,0.5,2.9c0.3,0.8,0,1.7-0.7,2.3c-0.7,0.5-1.6,0.6-2.4,0.1c0,0-1.8-1.2-5.4-3.6
	c-0.3-0.2-1.4-0.9-2.2-1.5l-0.3-0.2c-0.2-0.1-0.4-0.3-0.6-0.3c-0.9,1.4-3,1.7-7,2.3c-0.7,0.1-1.5,0.2-2.2,0.3
	c-4,0.6-17.6,3.3-17.7,3.3c-1,0.2-2-0.4-2.3-1.4c-0.3-1,0.2-2,1.1-2.4c0,0,3-1.4,5.2-2.5c1.1-0.6,4-2,6.5-3.2
	c-5.3-1.8-15-11.6-17.9-18.2c-2.5-5.7,0-11,1.3-13.2c-1.6,0.2-2.7,0.5-2.7,0.6c-1,0.3-2.2-0.2-2.5-1.3c-0.3-1.1,0.2-2.2,1.3-2.5
	c0.4-0.1,10.4-3.3,18.1,2.7c4.1,3.2,6.6,7.9,9,12.4c2,3.7,4,7.5,6.8,10.5c4.9,5.2,7.6,3.2,10.6,1c0.2-0.2,0.5-0.4,0.7-0.5
	c2.8-2,8.3-5,10.1-6c0.5-0.9,1.1-1.5,1.8-1.9c0.1-0.1,0.3-0.2,0.3-0.2c0,0,0.1-0.3,0.1-1.2c0-2.9-3.8-4.1-3.8-4.1
	c-0.8-0.3-1.4-1-1.4-1.9c0-0.1-0.3-13.7-3.1-20c-2.7-6.2-4.2-8-4.2-8c-0.4-0.5-0.6-1.2-0.4-1.9s0.7-1.2,1.3-1.4c0,0,3-0.9,5.9-2
	c2.1-0.8,4.5-3.3,5.2-7.3c1.1-5.9,5.2-5.9,9.7-5.9h0.5c2.1,0,4.9,0.3,8.1,0.7c4.2,0.5,8.9,1,13,0.9c1.3,0,2-0.2,2.3-0.3
	c-0.4-0.7-1.9-2.4-5.7-4.6c-4.6-2.8-12.3-4.8-17.9-6.3c-2.7-0.7-4.8-1.3-6-1.8c-2.7-1.1-4-3.3-5-5c-0.5-0.9-1-1.7-1.5-2
	c-2-1.6-13.3-1-18.1-0.7c-8.5,0.5-9.7,2.5-11.9,6.6c-0.4,0.8-0.9,1.7-1.5,2.7c-3.5,5.7-11.2,17-11.6,17.4c-0.3,0.5-0.9,0.8-1.5,0.9
	l0,0c0,0-3.2,0.6-8.4,7.3c-4.5,5.8-9.5,30.5-11.9,42.4c-0.7,3.4-1.2,6.1-1.6,7.6c-1.7,6.8-4.4,18.1-11,26.2
	c-2.2,2.7-3.5,5.6-4.3,8.3c0.4,0.6,1.3,1.2,2.9,0.7c1.9-0.5,3.5-1.4,5-2.3c1.6-0.9,3-1.8,4.7-2c2.1-0.3,4.1-0.7,4.8-0.8
	c1.6-0.8,8.7-4.6,10.8-5.5c0.2-0.1,0.4-0.2,0.8-0.3c11.3-5,22.6-7.3,33.6-7.1c17,0.4,23.4,9.5,25.8,12.9c0.2,0.3,0.4,0.5,0.5,0.7
	c2,2.6,2.8,5.7,2.9,5.9c0.2,0.8-0.1,1.7-0.9,2.2c-0.7,0.5-1.7,0.4-2.4-0.2c0,0-4.7-4-11.5-4.3c-3.1-0.2-5.6-0.2-7.6-0.2
	c-3.1,0-5.4-0.1-7.4-0.6c-0.7-0.2-1.3-0.4-2.1-0.6c-2.4-0.7-5.2-1.5-8-1.2c-1.8,0.2-3.2,0.7-4.6,1.1c-1.6,0.5-3.2,1-5.1,1.1l0,0
	c-3,0.1-21.9,0-24.1,0c-0.6,0.1-2.8,0.5-5,0.8c-0.9,0.1-2,0.8-3.3,1.5c-1.6,0.9-3.5,2.1-6,2.7c-2,0.6-3.6,0.3-4.9-0.3
	c-0.2,1.5-0.3,3-0.4,4.3c-0.1,1-0.2,2-0.3,2.9C68.6,159.8,65.8,164.3,63.7,167.1z M124,137.9c2.9,0,5.5,0.8,7.7,1.4
	c0.7,0.2,1.3,0.4,1.9,0.5c1.5,0.4,3.6,0.4,6.5,0.4c2.1,0,4.6,0.1,7.8,0.2c2.9,0.2,5.5,0.9,7.6,1.7c-2.3-3.2-8-10.5-22.4-10.8
	c-10.4-0.2-21.1,2-31.9,6.7c-0.4,0.2-0.7,0.3-0.9,0.4c-0.7,0.3-2.1,1-3.6,1.8c6.3,0,14.2,0,16,0l0,0c1.3,0,2.6-0.4,4-0.9
	c1.5-0.5,3.1-1,5.3-1.3C122.7,138,123.4,137.9,124,137.9z M133.7,114.2c0.2,0,0.4,0,0.7,0c1.1,0.1,2.1,0.5,3.1,1.2l0.3,0.2
	c0.9,0.6,2,1.3,2.2,1.5c0.7,0.4,1.2,0.8,1.8,1.2c0.1-0.6,0.3-1.2,0.6-1.8c0.6-1,1.6-1.6,2.8-1.7l0.4,0c2.5-0.3,2.9-0.3,4.4-1.3
	c0.9-0.6,2.1-3,2.6-4.4c-0.2-1.2-0.4-2.4-0.5-3.7c-2.3,1.3-5.2,3-7,4.2c-0.2,0.2-0.4,0.3-0.7,0.5c-3,2.2-8.5,6.3-15.9-1.4
	c-3.2-3.4-5.4-7.4-7.5-11.4c-2.3-4.4-4.5-8.5-7.9-11.1c-2.3-1.8-5-2.5-7.5-2.7c0.1,0.5,0,1.1-0.4,1.5c-0.1,0.1-3.6,5.1-1.4,10.1
	c2.6,6,11.6,14.7,15.5,16c3.3,1,4.3,1.2,4.5,1.3c0.8,0,1.6,0.5,1.8,1.3c0.3,1-0.1,2-1,2.5c0,0-1.2,0.6-2.8,1.3
	c1.1-0.2,2.1-0.4,2.8-0.5c0.8-0.1,1.5-0.2,2.3-0.3c1.3-0.2,3-0.4,4-0.7c0.1-0.3,0.2-0.6,0.4-0.9C132,114.5,132.7,114.2,133.7,114.2z
	"/>
</svg>
