<svg width="850" height="1280" xmlns="http://www.w3.org/2000/svg" preserveAspectRatio="xMidYMid meet">
 <metadata>Created by potrace 1.15, written by Peter Selinger 2001-2017</metadata>

 <g>
  <title>background</title>
  <rect fill="none" id="canvas_background" height="402" width="582" y="-1" x="-1"/>
 </g>
 <g>
  <title>Layer 1</title>
  <g id="svg_1" fill="#000000" transform="translate(0,1280) scale(0.10000000149011612,-0.10000000149011612) ">
   <path fill="#ffffff" id="svg_2" d="m6804,12789c-26,-13 -50,-65 -64,-139c-15,-78 -50,-972 -48,-1213c2,-264 -19,-462 -78,-712c-25,-104 -54,-220 -66,-257c-19,-63 -48,-108 -68,-108c-11,0 -54,57 -64,83c-21,62 -26,216 -15,483c13,308 8,419 -36,789c-33,278 -58,343 -138,361c-27,6 -35,2 -59,-27c-56,-67 -59,-92 -62,-521c-2,-407 -23,-830 -53,-1078c-12,-95 -17,-226 -18,-441c-1,-168 -5,-310 -8,-316c-4,-6 -13,-82 -21,-169c-10,-100 -23,-183 -37,-224c-43,-132 -202,-461 -224,-464c-6,-1 -12,72 -15,191c-3,111 -10,197 -16,203c-7,7 -17,5 -33,-6c-32,-23 -138,-158 -165,-213c-40,-78 -114,-339 -140,-491c-14,-80 -43,-208 -65,-285c-21,-77 -53,-194 -71,-260c-38,-144 -81,-259 -127,-336c-18,-32 -87,-116 -153,-188c-65,-72 -144,-163 -173,-203c-59,-79 -229,-248 -299,-296c-68,-46 -103,-61 -191,-83c-161,-39 -173,-49 -259,-208c-53,-98 -76,-130 -155,-207c-50,-51 -140,-128 -200,-173c-74,-56 -125,-103 -163,-152c-75,-97 -140,-154 -191,-167c-50,-13 -76,-3 -85,33c-3,14 6,91 20,173c27,155 33,294 15,371c-11,47 -31,91 -97,212c-48,87 -62,145 -92,399c-34,277 -40,296 -124,349c-72,45 -120,90 -142,133c-8,16 -22,79 -30,141c-10,81 -22,128 -44,172c-43,89 -44,114 -16,258c31,152 32,208 7,262c-31,68 -86,105 -156,105c-42,0 -134,-34 -170,-62c-31,-24 -47,-12 -40,32c38,235 47,438 21,487c-15,31 -17,31 -69,26c-68,-7 -107,6 -194,63c-37,25 -79,47 -93,50c-56,12 -68,23 -90,81c-20,52 -22,76 -21,224l1,165l-28,26c-26,26 -79,44 -195,68c-67,13 -77,27 -70,92c9,77 -31,118 -127,133c-56,8 -89,-14 -125,-83l-24,-47l-1,41c-1,105 -43,227 -85,246c-19,8 -33,5 -75,-18c-54,-29 -111,-94 -165,-187c-15,-26 -28,-47 -29,-45c-1,2 1,66 5,143c10,205 10,480 -1,559c-9,75 -33,112 -64,100c-27,-10 -59,-84 -137,-314c-39,-118 -73,-216 -74,-217c-1,-2 -1,185 -1,415c0,522 -10,595 -78,578c-59,-15 -166,-243 -186,-397c-7,-50 -10,-186 -8,-331c2,-136 2,-245 1,-244c-2,1 -30,137 -63,302c-71,349 -107,509 -125,544c-33,64 -115,111 -194,113c-35,0 -48,-5 -64,-24c-17,-21 -19,-34 -13,-119c15,-232 146,-854 223,-1060c20,-52 80,-187 133,-300c54,-113 101,-221 105,-241c6,-32 3,-38 -32,-69c-21,-18 -43,-43 -50,-54c-17,-29 -16,-87 3,-159c40,-155 102,-221 439,-472c350,-260 451,-368 575,-615c86,-172 219,-538 239,-661c6,-36 11,-161 11,-277l0,-212l94,-288c102,-311 113,-348 126,-427c20,-121 -23,-173 -226,-274c-110,-55 -138,-74 -199,-136c-113,-115 -286,-375 -337,-505c-28,-73 -28,-191 1,-324c27,-126 27,-240 0,-437c-27,-195 -29,-397 -5,-493c28,-117 78,-201 139,-232c23,-13 31,-13 56,0c38,20 51,61 51,159c0,90 10,113 105,242c70,94 204,259 215,263c12,4 168,-70 273,-130c120,-67 238,-183 290,-285c43,-82 77,-204 77,-272c-1,-73 -33,-203 -65,-257c-16,-27 -99,-119 -184,-204c-100,-99 -166,-174 -184,-207c-38,-71 -62,-172 -97,-409c-33,-226 -49,-278 -90,-299c-71,-37 -385,-50 -716,-31l-152,9l-65,-30c-77,-36 -187,-139 -212,-198c-23,-56 -15,-132 24,-231c49,-122 105,-230 116,-224c6,3 10,71 10,172c1,109 5,172 12,179c8,8 33,5 94,-10c46,-11 134,-23 196,-27l111,-7l-13,-38c-8,-22 -19,-66 -25,-99c-10,-56 -9,-65 14,-115c23,-51 58,-105 105,-164l19,-25l-5,45c-10,90 83,281 154,314c56,27 125,-2 157,-64c21,-40 40,-223 32,-312c-11,-133 -41,-192 -109,-210c-60,-16 -147,-14 -191,5c-22,9 -41,14 -44,12c-7,-8 36,-63 84,-105c25,-22 66,-48 90,-57c41,-16 47,-16 92,1c85,32 249,221 278,324c16,52 16,63 -1,169c-18,119 -16,182 10,231c12,25 24,31 72,41c217,43 375,84 438,115c85,41 165,118 262,254c38,52 85,108 106,125c34,27 47,31 97,31c44,0 65,-5 87,-21c27,-21 28,-24 27,-110c-2,-95 -15,-142 -142,-484c-59,-158 -69,-219 -78,-478l-7,-190l-111,-40c-300,-108 -332,-116 -451,-114c-60,1 -120,-1 -132,-3c-33,-7 -53,-55 -53,-125l0,-60l-41,0c-61,0 -105,-25 -128,-73c-42,-88 -101,-343 -101,-437c0,-69 60,-113 173,-126l53,-6l-18,168c-10,92 -16,169 -14,171c2,2 40,-1 83,-7c99,-13 147,-4 292,56c58,24 106,42 107,41c1,-1 -17,-77 -41,-169c-48,-189 -72,-244 -151,-341l-55,-68l38,7c68,12 155,45 200,75c59,41 89,90 108,177c21,103 53,157 113,194c30,19 44,20 122,15c101,-8 113,-2 129,61c12,44 28,168 36,273l6,76l252,6c334,7 396,23 443,115c16,30 23,69 28,144c9,126 21,209 48,310c21,80 37,104 63,94c9,-3 51,-80 95,-171c92,-193 186,-355 206,-355c7,0 30,11 50,25c39,26 43,27 214,25c60,-1 107,-6 111,-12c4,-5 9,-31 12,-57c6,-52 48,-154 75,-184c16,-18 27,-19 148,-12l130,7l70,-58c90,-74 196,-143 231,-150c41,-8 60,12 98,98c53,123 116,201 145,183c6,-4 26,-38 46,-76c39,-79 94,-137 153,-163c62,-29 71,-20 71,71c0,95 6,108 44,93c42,-15 106,-12 153,9c44,20 53,36 51,88c-1,39 26,83 51,83c10,0 36,-19 58,-43c54,-58 92,-87 115,-87c11,0 42,23 68,52l49,53l64,-18c76,-20 123,-14 270,34c105,35 175,75 198,116c10,15 31,73 49,128c27,85 33,120 37,228c6,141 -2,126 76,142c56,11 116,93 117,157c0,42 -33,120 -87,206c-28,42 -62,110 -77,150c-56,146 -119,215 -336,365c-180,124 -599,395 -680,439c-65,36 -111,72 -195,155c-87,85 -129,118 -200,157c-49,27 -113,66 -141,87c-61,45 -217,231 -244,291c-35,77 -26,202 34,467c29,131 51,175 88,179c28,3 50,-20 128,-138c86,-131 188,-213 235,-192c24,11 38,44 75,169c27,94 37,100 124,61c126,-55 207,-55 262,3c16,17 55,49 87,71c40,27 64,53 79,83l22,44l71,-6c70,-5 72,-5 96,24c14,17 31,56 38,87c21,95 107,162 276,217c64,20 73,21 172,9c168,-20 245,1 325,87c26,28 67,91 92,139c51,102 67,120 153,175c39,25 86,69 121,112c65,79 283,379 300,414c7,11 28,88 47,170c20,81 74,263 121,403c68,201 87,271 91,331c6,87 -11,137 -53,160c-34,17 -64,78 -64,126c0,55 31,108 94,165c86,76 170,222 267,465c81,202 106,285 129,421c12,70 33,161 46,202c13,41 24,90 24,107c0,29 -5,35 -45,54c-67,32 -95,70 -95,130c0,56 15,76 82,110c64,32 114,75 125,106c22,60 43,141 43,165c0,14 -13,64 -30,111c-34,99 -40,205 -18,352c19,131 -5,175 -97,175c-38,0 -56,5 -68,18c-25,27 -21,50 18,112c36,56 45,109 22,128c-7,6 -42,12 -77,14l-65,3l1,45c1,64 49,164 114,236c63,69 99,137 131,247c18,61 20,80 11,89c-10,10 -17,10 -32,0c-18,-11 -22,-9 -39,19c-28,46 -33,88 -16,149c43,158 66,265 63,298l-3,37l-82,12c-106,15 -117,19 -153,54c-48,49 -42,82 36,197c37,53 83,130 102,170l35,74l-16,52c-33,103 -47,106 -151,26c-35,-27 -88,-64 -117,-83c-72,-46 -83,-60 -108,-142c-30,-101 -71,-161 -118,-174c-60,-17 -113,-14 -113,5c0,9 29,89 64,178c91,229 139,383 133,427c-3,20 -17,64 -32,98c-31,69 -52,77 -99,40c-26,-21 -111,-186 -136,-264c-33,-107 -97,-256 -132,-307c-46,-69 -72,-88 -116,-88c-28,0 -33,3 -27,18c3,9 22,82 41,162c19,80 46,179 59,220c14,41 39,140 55,220c17,80 45,199 61,264c17,66 44,205 60,310c43,269 34,382 -36,464c-30,34 -34,36 -58,25c-42,-19 -142,-245 -167,-378c-7,-33 -32,-136 -56,-230c-24,-93 -53,-237 -64,-320c-23,-175 -56,-308 -139,-570c-33,-104 -69,-221 -80,-260c-22,-76 -54,-135 -72,-135c-12,0 -6,145 12,295c23,189 28,367 19,655c-14,405 -64,859 -108,977c-16,44 -20,48 -52,50c-19,1 -45,-3 -56,-8z"/>
  </g>
 </g>
</svg>