<?xml version="1.0" encoding="utf-8"?>
<!-- Generator: Adobe Illustrator 25.0.1, SVG Export Plug-In . SVG Version: 6.00 Build 0)  -->
<svg version="1.1" id="Capa_1" xmlns="http://www.w3.org/2000/svg" xmlns:xlink="http://www.w3.org/1999/xlink" x="0px" y="0px"
	 viewBox="0 0 379.8 379.8" style="enable-background:new 0 0 379.8 379.8;" xml:space="preserve">
<style type="text/css">
	.st0{fill:#F9F9F9;}
</style>
<path class="st0" d="M366.3,97.7c-0.1-1.1-1.5-1.1-2.4-1.1c-6.8,0-37.5,4.9-62.8,13.1c-1.6,0.5-2.9,0.8-3.9,0.8c-2,0-2.7-0.9-4.3-3
	c-1.8-2.5-4.4-6-11.2-8.9c-2.8-1.2-6.1-1.8-9.7-1.8c-14.2,0-32.2,9.3-42.7,22.1c-0.1,0.1-0.1,0.1-0.1,0.1c-0.9,0-4.1-3.6-9.6-17.1
	c-4-9.9-8.1-22.4-10.5-31.8c-3.6-14.2-13.9-34.2-20.7-47.4c-2.9-5.6-5.2-10.1-5.8-11.8c-0.4-1.3-1.1-2-2.1-2c-0.6,0-1.2,0.3-1.8,0.9
	c-6.7,7-20.3,65.3-19.4,83.1c0.7,14.7,12.3,24.6,17.9,29.4c0.7,0.6,1.4,1.2,1.9,1.7c-3-1.1-9.2-6.1-17.4-12.9
	c-11.9-9.7-29.8-24.4-54.2-40.5C73.5,48.1,51.7,25.8,38.6,12.5C30,3.6,26.3,0,23.8,0c-0.6,0-1.7,0.2-2.3,1.8
	c-2.9,7.8,0.8,88.4,37.1,132c20.3,24.3,46.1,36.8,63.2,45.1c9.9,4.8,17.6,8.5,18.9,12.1c0.3,0.8,0.2,1.6-0.2,2.4
	c-1.6,3.2-4.4,7.2-8,12.2c-9.8,13.8-24.7,34.6-35.6,69.3c-4.9,15.6-56,70.3-69.2,83.5c-0.6,0.6-15.8,15.9-14.1,20.2
	c0.1,0.3,0.6,1.1,1.9,1.1c3.2,0,11.6-5.4,24.9-16.2c17.5-14.1,29.4-25.8,38.1-34.5c8.5-8.4,13.8-13.6,17.4-14.2
	c-0.3,1.8-1.4,6.4-4.6,17.9c-0.1,0.3-0.2,0.9,0.1,1.4l0.4,0.6h0.5c0,0,0,0,0,0c0.8,0,1.2-0.6,4.5-4.8c10.2-12.7,41.4-51.6,84.7-60.1
	c25.4-5,56.9-28.5,68-63.9c16.8-53.4,30.9-87.1,105.2-104.1C366.5,99.4,366.4,98.8,366.3,97.7z"/>
</svg>
