<?xml version="1.0" encoding="utf-8"?>
<!-- Generator: Adobe Illustrator 25.0.1, SVG Export Plug-In . SVG Version: 6.00 Build 0)  -->
<svg version="1.1" id="Capa_1" xmlns="http://www.w3.org/2000/svg" xmlns:xlink="http://www.w3.org/1999/xlink" x="0px" y="0px"
	 viewBox="0 0 450.6 450.6" style="enable-background:new 0 0 450.6 450.6;" xml:space="preserve">
<style type="text/css">
	.st0{fill:#FFFFFF;}
</style>
<g>
	<path class="st0" d="M133.5,176.1c-73.4-6-104.6,23.7-105.9,24.9c-1.9,1.8-2,4.8-0.3,6.8c0.5,0.6,13.4,15.5,42.2,30.8
		c5.8,16.3,16.3,35.3,35.4,52.7c0.9,0.9,2.1,1.3,3.4,1.3c0.6,0,1.3-0.1,1.9-0.4c1.8-0.7,3-2.4,3.1-4.3l1.8-30.5
		c31.7,9.7,70.6,15,110.2,15s78.5-5.3,110.2-15l1.8,30.5c0.1,1.9,1.3,3.6,3.1,4.3c0.6,0.3,1.3,0.4,1.9,0.4c1.2,0,2.4-0.4,3.4-1.3
		c19.1-17.4,29.7-36.4,35.4-52.7c28.8-15.4,41.6-30.2,42.2-30.8c1.7-2,1.6-5-0.3-6.8c-1.3-1.3-32.5-30.9-105.9-24.9
		c-35.1,2.9-63.4,5-91.7,5C197.1,181.1,168.8,179,133.5,176.1z M168.2,237.1l2.1-48.2c27.9,1.9,42.9,2.3,50,2.4v48.9
		C200.5,239.9,183,238.7,168.2,237.1z M230.3,191.3c7.1-0.1,22.1-0.5,50-2.4l2.1,48.2c-14.8,1.6-32.3,2.9-52.1,3V191.3z
		 M160.4,188.2l-2.1,47.7c-20.9-2.8-35.2-6.1-41.5-7.8l1.9-42.7c4.5,0.1,9.2,0.3,14.1,0.7C143,186.9,152.1,187.6,160.4,188.2z
		 M38.6,205.1c4.3-3,12.1-7.7,23.9-11.8c-1.3,13,2.7,30.3,3,31.6C51.9,216.8,43.1,209.3,38.6,205.1z M103.9,276.3
		c-11.8-12.6-20.3-26.9-25.6-42.6c0,0,0-0.1,0-0.1c-1.5-4.6-2.8-9.3-3.7-14.1c-2.6-13.4-2.3-24.1-1.9-29.2
		c9.9-2.5,21.8-4.4,35.9-4.9L103.9,276.3z M225.3,262.4c-39.7,0-78.4-5.4-109.6-15.3l0.5-8.8c14.3,3.6,52.8,11.9,109.1,11.9
		s94.8-8.2,109.1-11.9l0.5,8.8C303.7,256.9,265,262.4,225.3,262.4z M346.7,276.3l-4.7-90.9c14.1,0.4,26,2.3,35.9,4.9
		C378.8,201.6,379.4,241.2,346.7,276.3z M385.1,224.9c0.3-1.4,3.9-18.1,3-31.6c11.8,4.1,19.6,8.7,23.9,11.8
		C407.5,209.3,398.7,216.8,385.1,224.9z M317.9,186c4.9-0.4,9.6-0.6,14.1-0.7l1.9,42.7c-6.3,1.7-20.6,5.1-41.5,7.8l-2.1-47.7
		C298.5,187.6,307.7,186.9,317.9,186z"/>
	<path class="st0" d="M448.9,194.9c-0.3-0.3-30.9-25.8-66.4-49.5c-48.7-32.5-83.3-46-102.9-40.4c-4.4,1.3-8.4,2.6-12.3,3.8
		c-13.1,4.2-23.4,7.6-41.9,7.8c-18.5-0.2-28.8-3.5-41.9-7.8c-3.8-1.2-7.8-2.5-12.3-3.8c-19.6-5.7-54.3,7.9-102.9,40.4
		C32.7,169,2.1,194.6,1.8,194.9c-1.8,1.5-2.3,4.1-1.2,6.2c0.8,1.5,19.7,36.9,56.9,72.8c21.9,21.1,45.5,38,70.2,50.1
		c31,15.2,63.9,22.9,97.6,22.9s66.6-7.7,97.6-22.9c24.7-12.1,48.4-29,70.2-50.1c37.2-35.9,56.1-71.4,56.9-72.8
		C451.2,199,450.7,196.4,448.9,194.9z M386.2,266.7c-33.1,32-87.9,70.2-160.9,70.2c-72.9,0-127.6-38-160.7-70
		c-29.5-28.4-47.5-57.2-53.3-67c35.5-29.3,124.2-94.8,156.9-85.3c4.3,1.2,8.2,2.5,12,3.7c13.4,4.3,24.9,8.1,45,8.2c0,0,0,0,0,0
		c0,0,0,0,0,0s0,0,0,0c20.1-0.2,31.6-3.9,45-8.2c3.8-1.2,7.7-2.5,12-3.7c32.7-9.5,121.4,56,157,85.3
		C433.5,209.7,415.6,238.3,386.2,266.7z"/>
</g>
</svg>
